<mxfile host="app.diagrams.net" agent="Mozilla/5.0 (Windows NT 10.0; Win64; x64) AppleWebKit/537.36 (KHTML, like Gecko) Chrome/135.0.0.0 Safari/537.36 Edg/135.0.0.0" version="27.0.3">
  <diagram name="第 1 页" id="GXBLSJX2dwaeDAIxaufo">
    <mxGraphModel dx="1004" dy="712" grid="0" gridSize="10" guides="1" tooltips="1" connect="1" arrows="1" fold="1" page="1" pageScale="1" pageWidth="1169" pageHeight="827" math="0" shadow="0">
      <root>
        <mxCell id="0" />
        <mxCell id="1" parent="0" />
        <mxCell id="jJITtWOhfclmfheHbyZK-1" value="管理员" style="shape=umlActor;verticalLabelPosition=bottom;verticalAlign=top;html=1;outlineConnect=0;fontFamily=宋体;fontSize=10;strokeWidth=2;" vertex="1" parent="1">
          <mxGeometry x="59" y="339" width="30" height="60" as="geometry" />
        </mxCell>
        <mxCell id="jJITtWOhfclmfheHbyZK-2" value="员工管理" style="ellipse;whiteSpace=wrap;html=1;fontFamily=宋体;fontSize=10;strokeWidth=2;" vertex="1" parent="1">
          <mxGeometry x="251" y="319" width="120" height="80" as="geometry" />
        </mxCell>
        <mxCell id="jJITtWOhfclmfheHbyZK-3" value="禁用员工" style="ellipse;whiteSpace=wrap;html=1;fontFamily=宋体;fontSize=10;strokeWidth=2;" vertex="1" parent="1">
          <mxGeometry x="614" y="557" width="120" height="80" as="geometry" />
        </mxCell>
        <mxCell id="jJITtWOhfclmfheHbyZK-4" value="查询员工" style="ellipse;whiteSpace=wrap;html=1;fontFamily=宋体;fontSize=10;strokeWidth=2;" vertex="1" parent="1">
          <mxGeometry x="614" y="116" width="120" height="80" as="geometry" />
        </mxCell>
        <mxCell id="jJITtWOhfclmfheHbyZK-5" value="添加员工" style="ellipse;whiteSpace=wrap;html=1;fontFamily=宋体;fontSize=10;strokeWidth=2;" vertex="1" parent="1">
          <mxGeometry x="614" y="263" width="120" height="80" as="geometry" />
        </mxCell>
        <mxCell id="jJITtWOhfclmfheHbyZK-6" value="修改员工" style="ellipse;whiteSpace=wrap;html=1;fontFamily=宋体;fontSize=10;strokeWidth=2;" vertex="1" parent="1">
          <mxGeometry x="614" y="410" width="120" height="80" as="geometry" />
        </mxCell>
        <mxCell id="jJITtWOhfclmfheHbyZK-8" value="" style="endArrow=none;html=1;rounded=0;exitX=1;exitY=0.3333333333333333;exitDx=0;exitDy=0;exitPerimeter=0;entryX=0;entryY=0.5;entryDx=0;entryDy=0;strokeWidth=2;" edge="1" parent="1" source="jJITtWOhfclmfheHbyZK-1" target="jJITtWOhfclmfheHbyZK-2">
          <mxGeometry width="50" height="50" relative="1" as="geometry">
            <mxPoint x="92" y="361" as="sourcePoint" />
            <mxPoint x="142" y="311" as="targetPoint" />
          </mxGeometry>
        </mxCell>
        <mxCell id="jJITtWOhfclmfheHbyZK-9" value="" style="endArrow=classic;html=1;rounded=0;exitX=1;exitY=0.5;exitDx=0;exitDy=0;entryX=0;entryY=0.5;entryDx=0;entryDy=0;dashed=1;dashPattern=8 8;strokeWidth=2;" edge="1" parent="1" source="jJITtWOhfclmfheHbyZK-2" target="jJITtWOhfclmfheHbyZK-4">
          <mxGeometry width="50" height="50" relative="1" as="geometry">
            <mxPoint x="404" y="330" as="sourcePoint" />
            <mxPoint x="454" y="280" as="targetPoint" />
          </mxGeometry>
        </mxCell>
        <mxCell id="jJITtWOhfclmfheHbyZK-10" value="" style="endArrow=classic;html=1;rounded=0;exitX=1;exitY=0.5;exitDx=0;exitDy=0;entryX=0;entryY=0.5;entryDx=0;entryDy=0;dashed=1;dashPattern=8 8;strokeWidth=2;" edge="1" parent="1" source="jJITtWOhfclmfheHbyZK-2" target="jJITtWOhfclmfheHbyZK-3">
          <mxGeometry width="50" height="50" relative="1" as="geometry">
            <mxPoint x="381" y="369" as="sourcePoint" />
            <mxPoint x="605" y="219" as="targetPoint" />
          </mxGeometry>
        </mxCell>
        <mxCell id="jJITtWOhfclmfheHbyZK-11" value="" style="endArrow=classic;html=1;rounded=0;exitX=1;exitY=0.5;exitDx=0;exitDy=0;entryX=0;entryY=0.5;entryDx=0;entryDy=0;dashed=1;dashPattern=8 8;strokeWidth=2;" edge="1" parent="1" source="jJITtWOhfclmfheHbyZK-2" target="jJITtWOhfclmfheHbyZK-6">
          <mxGeometry width="50" height="50" relative="1" as="geometry">
            <mxPoint x="391" y="379" as="sourcePoint" />
            <mxPoint x="615" y="229" as="targetPoint" />
          </mxGeometry>
        </mxCell>
        <mxCell id="jJITtWOhfclmfheHbyZK-12" value="" style="endArrow=classic;html=1;rounded=0;exitX=1;exitY=0.5;exitDx=0;exitDy=0;entryX=0;entryY=0.5;entryDx=0;entryDy=0;dashed=1;dashPattern=8 8;strokeWidth=2;" edge="1" parent="1" source="jJITtWOhfclmfheHbyZK-2" target="jJITtWOhfclmfheHbyZK-5">
          <mxGeometry width="50" height="50" relative="1" as="geometry">
            <mxPoint x="401" y="389" as="sourcePoint" />
            <mxPoint x="625" y="239" as="targetPoint" />
          </mxGeometry>
        </mxCell>
      </root>
    </mxGraphModel>
  </diagram>
</mxfile>
